<svg xmlns="http://www.w3.org/2000/svg" width="200" height="200" viewBox="0 0 200 200">
  <defs>
    <linearGradient id="bg" x1="0%" y1="0%" x2="100%" y2="100%">
      <stop offset="0%" style="stop-color:#0f172a"/>
      <stop offset="100%" style="stop-color:#1e293b"/>
    </linearGradient>
    <linearGradient id="accent" x1="0%" y1="0%" x2="100%" y2="100%">
      <stop offset="0%" style="stop-color:#8b5cf6"/>
      <stop offset="100%" style="stop-color:#a78bfa"/>
    </linearGradient>
    <filter id="glow">
      <feGaussianBlur stdDeviation="4" result="blur"/>
      <feMerge><feMergeNode in="blur"/><feMergeNode in="SourceGraphic"/></feMerge>
    </filter>
  </defs>
  <rect width="200" height="200" rx="40" fill="url(#bg)"/>
  <circle cx="100" cy="72" r="20" fill="none" stroke="url(#accent)" stroke-width="3" filter="url(#glow)"/>
  <circle cx="100" cy="67" r="8" fill="url(#accent)" opacity="0.7"/>
  <path d="M75 108 C75 93 86 85 100 85 C114 85 125 93 125 108" fill="none" stroke="url(#accent)" stroke-width="3" stroke-linecap="round"/>
  <circle cx="130" cy="100" r="18" fill="#1e293b" stroke="url(#accent)" stroke-width="2.5"/>
  <path d="M130 92 L130 108 M122 100 L138 100" stroke="url(#accent)" stroke-width="2.5" stroke-linecap="round"/>
  <rect x="55" y="135" width="35" height="6" rx="3" fill="#8b5cf6" opacity="0.3"/>
  <rect x="55" y="148" width="55" height="4" rx="2" fill="#8b5cf6" opacity="0.15"/>
  <rect x="55" y="158" width="42" height="4" rx="2" fill="#8b5cf6" opacity="0.15"/>
  <rect x="50" y="170" width="100" height="22" rx="4" fill="#8b5cf6" opacity="0.12"/>
  <text x="100" y="186" text-anchor="middle" font-family="Arial,sans-serif" font-weight="900" font-size="10" fill="#8b5cf6" letter-spacing="2">PROFILE</text>
</svg>
