<svg xmlns="http://www.w3.org/2000/svg" width="200" height="200" viewBox="0 0 200 200">
  <defs>
    <linearGradient id="bg" x1="0%" y1="0%" x2="100%" y2="100%">
      <stop offset="0%" style="stop-color:#0f172a"/>
      <stop offset="100%" style="stop-color:#1e293b"/>
    </linearGradient>
    <linearGradient id="accent" x1="0%" y1="0%" x2="100%" y2="100%">
      <stop offset="0%" style="stop-color:#10b981"/>
      <stop offset="100%" style="stop-color:#059669"/>
    </linearGradient>
    <filter id="glow">
      <feGaussianBlur stdDeviation="4" result="blur"/>
      <feMerge><feMergeNode in="blur"/><feMergeNode in="SourceGraphic"/></feMerge>
    </filter>
  </defs>
  <rect width="200" height="200" rx="40" fill="url(#bg)"/>
  <rect x="55" y="42" width="90" height="110" rx="10" fill="none" stroke="url(#accent)" stroke-width="2.5" filter="url(#glow)"/>
  <rect x="55" y="42" width="90" height="28" rx="10" fill="url(#accent)" opacity="0.2"/>
  <text x="100" y="62" text-anchor="middle" font-family="Arial,sans-serif" font-weight="900" font-size="11" fill="#10b981" letter-spacing="1">BRS</text>
  <rect x="68" y="82" width="44" height="5" rx="2.5" fill="#10b981" opacity="0.35"/>
  <rect x="68" y="93" width="64" height="4" rx="2" fill="#10b981" opacity="0.2"/>
  <rect x="68" y="103" width="52" height="4" rx="2" fill="#10b981" opacity="0.2"/>
  <rect x="68" y="113" width="58" height="4" rx="2" fill="#10b981" opacity="0.2"/>
  <rect x="68" y="126" width="24" height="16" rx="4" fill="url(#accent)" opacity="0.5"/>
  <path d="M76 134 L80 138 L86 130" fill="none" stroke="white" stroke-width="2" stroke-linecap="round" stroke-linejoin="round"/>
  <circle cx="115" cy="134" r="8" fill="none" stroke="#10b981" stroke-width="2" opacity="0.4"/>
  <rect x="50" y="162" width="100" height="22" rx="4" fill="#10b981" opacity="0.12"/>
  <text x="100" y="178" text-anchor="middle" font-family="Arial,sans-serif" font-weight="900" font-size="10" fill="#10b981" letter-spacing="2">REGISTRATION</text>
</svg>
