<svg xmlns="http://www.w3.org/2000/svg" width="200" height="200" viewBox="0 0 200 200">
  <defs>
    <linearGradient id="bg" x1="0%" y1="0%" x2="100%" y2="100%">
      <stop offset="0%" style="stop-color:#0f172a"/>
      <stop offset="100%" style="stop-color:#1e293b"/>
    </linearGradient>
    <linearGradient id="accent" x1="0%" y1="0%" x2="100%" y2="100%">
      <stop offset="0%" style="stop-color:#a78bfa"/>
      <stop offset="100%" style="stop-color:#8b5cf6"/>
    </linearGradient>
    <filter id="glow">
      <feGaussianBlur stdDeviation="4" result="blur"/>
      <feMerge><feMergeNode in="blur"/><feMergeNode in="SourceGraphic"/></feMerge>
    </filter>
  </defs>
  <rect width="200" height="200" rx="40" fill="url(#bg)"/>
  <rect x="55" y="45" width="90" height="65" rx="8" fill="none" stroke="url(#accent)" stroke-width="2.5" filter="url(#glow)"/>
  <rect x="55" y="45" width="90" height="20" rx="8" fill="url(#accent)" opacity="0.2"/>
  <circle cx="75" cy="55" r="4" fill="#a78bfa" opacity="0.5"/>
  <rect x="84" y="52" width="30" height="5" rx="2.5" fill="#a78bfa" opacity="0.4"/>
  <rect x="68" y="76" width="64" height="4" rx="2" fill="#a78bfa" opacity="0.25"/>
  <rect x="68" y="86" width="48" height="4" rx="2" fill="#a78bfa" opacity="0.2"/>
  <rect x="68" y="96" width="56" height="4" rx="2" fill="#a78bfa" opacity="0.15"/>
  <circle cx="82" cy="130" r="14" fill="none" stroke="url(#accent)" stroke-width="2.5" opacity="0.7"/>
  <circle cx="82" cy="126" r="5" fill="#a78bfa" opacity="0.5"/>
  <path d="M72 140 C72 134 76 130 82 130 C88 130 92 134 92 140" fill="none" stroke="#a78bfa" stroke-width="2" opacity="0.5"/>
  <circle cx="118" cy="130" r="14" fill="none" stroke="url(#accent)" stroke-width="2.5" opacity="0.7"/>
  <circle cx="118" cy="126" r="5" fill="#a78bfa" opacity="0.5"/>
  <path d="M108 140 C108 134 112 130 118 130 C124 130 128 134 128 140" fill="none" stroke="#a78bfa" stroke-width="2" opacity="0.5"/>
  <rect x="50" y="158" width="100" height="22" rx="4" fill="#a78bfa" opacity="0.12"/>
  <text x="100" y="174" text-anchor="middle" font-family="Arial,sans-serif" font-weight="900" font-size="9" fill="#a78bfa" letter-spacing="2">CIVIL REG</text>
</svg>
