<svg xmlns="http://www.w3.org/2000/svg" width="200" height="200" viewBox="0 0 200 200">
  <defs>
    <linearGradient id="bg" x1="0%" y1="0%" x2="100%" y2="100%">
      <stop offset="0%" style="stop-color:#0f172a"/>
      <stop offset="100%" style="stop-color:#1e293b"/>
    </linearGradient>
    <linearGradient id="accent" x1="0%" y1="0%" x2="100%" y2="100%">
      <stop offset="0%" style="stop-color:#f59e0b"/>
      <stop offset="100%" style="stop-color:#d97706"/>
    </linearGradient>
    <filter id="glow">
      <feGaussianBlur stdDeviation="4" result="blur"/>
      <feMerge><feMergeNode in="blur"/><feMergeNode in="SourceGraphic"/></feMerge>
    </filter>
  </defs>
  <rect width="200" height="200" rx="40" fill="url(#bg)"/>
  <path d="M100 40 L135 55 L135 88 C135 112 118 130 100 138 C82 130 65 112 65 88 L65 55 Z" fill="none" stroke="url(#accent)" stroke-width="3" filter="url(#glow)"/>
  <path d="M100 52 L128 64 L128 88 C128 107 115 122 100 128 C85 122 72 107 72 88 L72 64 Z" fill="url(#accent)" opacity="0.15"/>
  <circle cx="100" cy="82" r="12" fill="none" stroke="url(#accent)" stroke-width="2.5" opacity="0.8"/>
  <path d="M95 82 L99 86 L106 78" fill="none" stroke="#f59e0b" stroke-width="2.5" stroke-linecap="round" stroke-linejoin="round"/>
  <rect x="80" y="98" width="40" height="6" rx="3" fill="#f59e0b" opacity="0.3"/>
  <rect x="86" y="108" width="28" height="4" rx="2" fill="#f59e0b" opacity="0.2"/>
  <rect x="50" y="150" width="100" height="22" rx="4" fill="#f59e0b" opacity="0.12"/>
  <text x="100" y="166" text-anchor="middle" font-family="Arial,sans-serif" font-weight="900" font-size="10" fill="#f59e0b" letter-spacing="2">GOOD CONDUCT</text>
</svg>
