<svg xmlns="http://www.w3.org/2000/svg" width="200" height="200" viewBox="0 0 200 200">
  <defs>
    <linearGradient id="bg" x1="0%" y1="0%" x2="100%" y2="100%">
      <stop offset="0%" style="stop-color:#0f172a"/>
      <stop offset="100%" style="stop-color:#1e293b"/>
    </linearGradient>
    <linearGradient id="accent" x1="0%" y1="0%" x2="100%" y2="100%">
      <stop offset="0%" style="stop-color:#06b6d4"/>
      <stop offset="100%" style="stop-color:#0891b2"/>
    </linearGradient>
    <filter id="glow">
      <feGaussianBlur stdDeviation="4" result="blur"/>
      <feMerge><feMergeNode in="blur"/><feMergeNode in="SourceGraphic"/></feMerge>
    </filter>
  </defs>
  <rect width="200" height="200" rx="40" fill="url(#bg)"/>
  <polygon points="100,45 155,72 100,99 45,72" fill="none" stroke="url(#accent)" stroke-width="3" filter="url(#glow)"/>
  <polygon points="100,55 145,76 100,97 55,76" fill="url(#accent)" opacity="0.15"/>
  <line x1="155" y1="72" x2="155" y2="110" stroke="#06b6d4" stroke-width="2.5" opacity="0.6"/>
  <circle cx="155" cy="114" r="4" fill="#06b6d4" opacity="0.6"/>
  <path d="M72 85 L72 115 C72 125 85 133 100 133 C115 133 128 125 128 115 L128 85" fill="none" stroke="url(#accent)" stroke-width="2.5" opacity="0.7"/>
  <rect x="88" y="108" width="24" height="4" rx="2" fill="#06b6d4" opacity="0.3"/>
  <rect x="92" y="116" width="16" height="3" rx="1.5" fill="#06b6d4" opacity="0.2"/>
  <rect x="50" y="148" width="100" height="22" rx="4" fill="#06b6d4" opacity="0.12"/>
  <text x="100" y="164" text-anchor="middle" font-family="Arial,sans-serif" font-weight="900" font-size="10" fill="#06b6d4" letter-spacing="2">EDUCATION</text>
</svg>
