<svg xmlns="http://www.w3.org/2000/svg" width="200" height="200" viewBox="0 0 200 200">
  <defs>
    <linearGradient id="bg" x1="0%" y1="0%" x2="100%" y2="100%">
      <stop offset="0%" style="stop-color:#0f172a"/>
      <stop offset="100%" style="stop-color:#1e293b"/>
    </linearGradient>
    <linearGradient id="cross" x1="0%" y1="0%" x2="100%" y2="100%">
      <stop offset="0%" style="stop-color:#ef4444"/>
      <stop offset="100%" style="stop-color:#f97316"/>
    </linearGradient>
    <filter id="glow">
      <feGaussianBlur stdDeviation="5" result="blur"/>
      <feMerge><feMergeNode in="blur"/><feMergeNode in="SourceGraphic"/></feMerge>
    </filter>
  </defs>
  <rect width="200" height="200" rx="40" fill="url(#bg)"/>
  <rect x="60" y="45" width="80" height="100" rx="12" fill="none" stroke="url(#cross)" stroke-width="2.5" opacity="0.5"/>
  <rect x="72" y="55" width="56" height="8" rx="4" fill="#ef4444" opacity="0.2"/>
  <rect x="72" y="70" width="40" height="4" rx="2" fill="#ef4444" opacity="0.15"/>
  <rect x="72" y="80" width="50" height="4" rx="2" fill="#ef4444" opacity="0.15"/>
  <circle cx="100" cy="115" r="25" fill="url(#cross)" filter="url(#glow)" opacity="0.85"/>
  <rect x="93" y="102" width="14" height="26" rx="3" fill="white" opacity="0.9"/>
  <rect x="87" y="108" width="26" height="14" rx="3" fill="white" opacity="0.9"/>
  <path d="M65 90 Q60 90 60 85" fill="none" stroke="#ef4444" stroke-width="1.5" opacity="0.3"/>
  <circle cx="140" cy="60" r="3" fill="#ef4444" opacity="0.2"/>
  <circle cx="150" cy="75" r="2" fill="#ef4444" opacity="0.15"/>
  <rect x="50" y="155" width="100" height="22" rx="4" fill="#ef4444" opacity="0.12"/>
  <text x="100" y="171" text-anchor="middle" font-family="Arial,sans-serif" font-weight="900" font-size="10" fill="#ef4444" letter-spacing="2">HEALTH</text>
</svg>
