<svg xmlns="http://www.w3.org/2000/svg" width="200" height="200" viewBox="0 0 200 200">
  <defs>
    <linearGradient id="bg" x1="0%" y1="0%" x2="100%" y2="100%">
      <stop offset="0%" style="stop-color:#0f172a"/>
      <stop offset="100%" style="stop-color:#1e293b"/>
    </linearGradient>
    <linearGradient id="shield" x1="0%" y1="0%" x2="100%" y2="100%">
      <stop offset="0%" style="stop-color:#3b82f6"/>
      <stop offset="100%" style="stop-color:#6366f1"/>
    </linearGradient>
    <filter id="glow">
      <feGaussianBlur stdDeviation="4" result="blur"/>
      <feMerge><feMergeNode in="blur"/><feMergeNode in="SourceGraphic"/></feMerge>
    </filter>
  </defs>
  <rect width="200" height="200" rx="40" fill="url(#bg)"/>
  <path d="M100 40 L140 58 L140 95 C140 120 120 140 100 150 C80 140 60 120 60 95 L60 58 Z" fill="url(#shield)" filter="url(#glow)" opacity="0.85"/>
  <circle cx="100" cy="82" r="14" fill="none" stroke="white" stroke-width="2.5" opacity="0.8"/>
  <circle cx="100" cy="78" r="6" fill="white" opacity="0.6"/>
  <path d="M85 105 C85 95 92 90 100 90 C108 90 115 95 115 105" fill="none" stroke="white" stroke-width="2.5" opacity="0.6"/>
  <circle cx="72" cy="88" r="8" fill="white" opacity="0.25"/>
  <circle cx="128" cy="88" r="8" fill="white" opacity="0.25"/>
  <rect x="50" y="155" width="100" height="22" rx="4" fill="#3b82f6" opacity="0.15"/>
  <text x="100" y="171" text-anchor="middle" font-family="Arial,sans-serif" font-weight="900" font-size="10" fill="#3b82f6" letter-spacing="2">NSSF / NHIF</text>
</svg>
